<svg width="22" height="22" viewBox="0 0 22 22" fill="none" xmlns="http://www.w3.org/2000/svg">
<path d="M18.6484 15.7266H17.1381C17.035 15.7266 16.9383 15.7717 16.8738 15.8512C16.7234 16.0338 16.5623 16.21 16.3926 16.3776C15.6984 17.0724 14.8761 17.6262 13.9713 18.0082C13.0338 18.4042 12.0262 18.6073 11.0086 18.6055C9.97949 18.6055 8.98262 18.4035 8.0459 18.0082C7.14104 17.6262 6.31879 17.0724 5.62461 16.3776C4.9292 15.685 4.37469 14.8642 3.9918 13.9606C3.59434 13.0239 3.39454 12.0291 3.39454 11C3.39454 9.97093 3.59649 8.9762 3.9918 8.03949C4.37422 7.13499 4.92422 6.32074 5.62461 5.62249C6.325 4.92425 7.13926 4.37425 8.0459 3.99183C8.98262 3.59652 9.97949 3.39456 11.0086 3.39456C12.0377 3.39456 13.0346 3.59437 13.9713 3.99183C14.8779 4.37425 15.6922 4.92425 16.3926 5.62249C16.5623 5.79222 16.7213 5.96839 16.8738 6.14886C16.9383 6.22835 17.0371 6.27347 17.1381 6.27347H18.6484C18.7838 6.27347 18.8676 6.12308 18.7924 6.00921C17.1445 3.44827 14.2613 1.75316 10.985 1.76175C5.83731 1.77464 1.71016 5.95335 1.76172 11.0946C1.81329 16.1541 5.93399 20.2383 11.0086 20.2383C14.2764 20.2383 17.1467 18.5453 18.7924 15.9909C18.8654 15.877 18.7838 15.7266 18.6484 15.7266ZM20.5584 10.8647L17.5098 8.45843C17.3959 8.3682 17.2305 8.44984 17.2305 8.59378V10.2266H10.4844C10.3898 10.2266 10.3125 10.3039 10.3125 10.3985V11.6016C10.3125 11.6961 10.3898 11.7735 10.4844 11.7735H17.2305V13.4063C17.2305 13.5502 17.398 13.6319 17.5098 13.5416L20.5584 11.1354C20.5789 11.1193 20.5956 11.0988 20.607 11.0753C20.6184 11.0519 20.6243 11.0261 20.6243 11C20.6243 10.9739 20.6184 10.9482 20.607 10.9248C20.5956 10.9013 20.5789 10.8808 20.5584 10.8647V10.8647Z" fill="#0BCAD4"/>
</svg>
