<svg width="46" height="46" viewBox="0 0 46 46" fill="none" xmlns="http://www.w3.org/2000/svg">
<mask id="mask0_14592_36" style="mask-type:alpha" maskUnits="userSpaceOnUse" x="0" y="0" width="46" height="46">
<circle cx="23" cy="23" r="23" fill="#0BCAD4"/>
</mask>
<g mask="url(#mask0_14592_36)">
<circle cx="23" cy="23" r="23" fill="#0BCAD4"/>
<ellipse cx="22.5" cy="34" rx="10.5" ry="3" fill="#0AA8B0"/>
</g>
<path d="M23 25.4051C25.7828 25.4051 26.3579 30.202 26.8691 33.0583C27.013 33.8624 28.7426 34.1063 29.2386 33.4572C35.4231 25.3646 34.8657 16.5013 34.3474 14.0578C33.7743 11.3561 32.1701 9.19467 29.4843 9.19467C26.7987 9.19467 24.8988 10.1076 23.0001 12.0064C21.1014 10.1076 19.2015 9.19467 16.5159 9.19467C13.8301 9.19467 12.2259 11.3561 11.6528 14.0578C11.1345 16.5013 10.5771 25.3646 16.7616 33.4572C17.2576 34.1063 18.9872 33.8626 19.1312 33.0583C19.6421 30.202 20.2172 25.4051 23 25.4051Z" fill="white"/>
<path d="M34.3473 14.0578C33.7742 11.3561 32.17 9.19467 29.4842 9.19467C26.7986 9.19467 24.8987 10.1076 23 12.0064C22.9858 11.9922 22.9716 11.9793 22.9574 11.9652V25.4075C22.9719 25.4072 22.9854 25.4052 23 25.4052C25.7828 25.4052 26.3579 30.2021 26.8691 33.0584C27.013 33.8626 28.7426 34.1064 29.2387 33.4572C35.4231 25.3646 34.8657 16.5013 34.3473 14.0578Z" fill="#EDECEB"/>
</svg>
