<svg width="46" height="46" viewBox="0 0 46 46" fill="none" xmlns="http://www.w3.org/2000/svg">
<mask id="mask0_14593_53" style="mask-type:alpha" maskUnits="userSpaceOnUse" x="0" y="0" width="46" height="46">
<circle cx="23" cy="23" r="23" fill="#0BCAD4"/>
</mask>
<g mask="url(#mask0_14593_53)">
<circle cx="23" cy="23" r="23" fill="#0BCAD4"/>
<ellipse cx="22.5" cy="34" rx="10.5" ry="3" fill="#0AA8B0"/>
</g>
<path d="M24.8564 7C23.3269 7 22.0872 8.23645 22.0872 9.7619C22.0872 11.2874 23.3269 12.5238 24.8564 12.5238V7Z" fill="#FFDA44"/>
<path d="M20.4256 7C21.9551 7 23.1949 8.23645 23.1949 9.7619C23.1949 11.2874 21.9551 12.5238 20.4256 12.5238V7Z" fill="#FF9811"/>
<path d="M22.641 8.10477C22.641 8.10477 10.4564 13.5456 10.4564 20.2571V24.6762H22.641H34.8256V20.2571C34.8256 13.5456 29.3704 8.10477 22.641 8.10477Z" fill="#FFDA44"/>
<path d="M22.641 24.6762C22.641 24.6762 22.641 13.3708 22.641 8.10477C15.9117 8.10477 10.4564 13.5456 10.4564 20.2571V24.6762H22.641Z" fill="#FF9811"/>
<path d="M22.641 34.619C28.7586 34.619 33.718 29.4256 33.718 23.0191C33.718 16.6125 28.7586 11.4191 22.641 11.4191C16.5234 11.4191 11.5641 16.6125 11.5641 23.0191C11.5641 29.4256 16.5234 34.619 22.641 34.619Z" fill="#FFEACF"/>
<path d="M22.641 30.8472C20.7115 30.8472 18.9214 29.8047 17.9692 28.1265C17.8939 27.9937 17.9408 27.8252 18.0739 27.7501C18.2069 27.6747 18.376 27.7217 18.4513 27.8545C19.3053 29.3597 20.9107 30.2948 22.641 30.2948C24.3715 30.2948 25.9768 29.3597 26.8308 27.8545C26.9062 27.7217 27.0749 27.6751 27.2082 27.7501C27.3412 27.8252 27.388 27.9937 27.3127 28.1265C26.3608 29.8047 24.5707 30.8472 22.641 30.8472Z" fill="#E8667D"/>
<path d="M18.7641 26.8857C19.6817 26.8857 20.4256 26.3911 20.4256 25.781C20.4256 25.1708 19.6817 24.6762 18.7641 24.6762C17.8465 24.6762 17.1026 25.1708 17.1026 25.781C17.1026 26.3911 17.8465 26.8857 18.7641 26.8857Z" fill="#FFB9A7"/>
<path d="M18.7641 24.1238C19.2229 24.1238 19.5949 23.7528 19.5949 23.2952C19.5949 22.8376 19.2229 22.4667 18.7641 22.4667C18.3053 22.4667 17.9333 22.8376 17.9333 23.2952C17.9333 23.7528 18.3053 24.1238 18.7641 24.1238Z" fill="#50412E"/>
<path d="M26.5179 26.8857C27.4356 26.8857 28.1795 26.3911 28.1795 25.781C28.1795 25.1708 27.4356 24.6762 26.5179 24.6762C25.6003 24.6762 24.8564 25.1708 24.8564 25.781C24.8564 26.3911 25.6003 26.8857 26.5179 26.8857Z" fill="#FFB9A7"/>
<path d="M26.5179 24.1238C26.9768 24.1238 27.3487 23.7528 27.3487 23.2952C27.3487 22.8376 26.9768 22.4667 26.5179 22.4667C26.0591 22.4667 25.6872 22.8376 25.6872 23.2952C25.6872 23.7528 26.0591 24.1238 26.5179 24.1238Z" fill="#50412E"/>
<path d="M22.641 33.2933C20.1456 33.2933 17.7579 32.8119 15.5563 31.9351C17.4765 33.6106 19.946 34.619 22.641 34.619C25.336 34.619 27.8055 33.6106 29.7257 31.9351C27.5242 32.8119 25.1364 33.2933 22.641 33.2933Z" fill="#FFD6A0"/>
<path d="M11.5641 26.8857C12.7876 26.8857 13.7795 25.8965 13.7795 24.6762C13.7795 23.4559 12.7876 22.4667 11.5641 22.4667C10.3406 22.4667 9.34872 23.4559 9.34872 24.6762C9.34872 25.8965 10.3406 26.8857 11.5641 26.8857Z" fill="#FFEACF"/>
<path d="M33.7179 26.8857C34.9415 26.8857 35.9333 25.8965 35.9333 24.6762C35.9333 23.4559 34.9415 22.4667 33.7179 22.4667C32.4944 22.4667 31.5026 23.4559 31.5026 24.6762C31.5026 25.8965 32.4944 26.8857 33.7179 26.8857Z" fill="#FFEACF"/>
<path d="M30.3949 12.5238L22.641 10.3143L20.4256 14.7333L22.641 18.0476H31.5026V22.4667C31.5026 23.687 32.4944 24.6762 33.7179 24.6762V16.9429L30.3949 12.5238Z" fill="#FFDA44"/>
<path d="M14.8872 12.5238L22.641 10.3143V18.0476H13.7795V22.4667C13.7795 23.687 12.7877 24.6762 11.5641 24.6762V16.9429L14.8872 12.5238Z" fill="#FF9811"/>
</svg>
